<mxfile host="app.diagrams.net" agent="Mozilla/5.0 (Windows NT 10.0; Win64; x64) AppleWebKit/537.36 (KHTML, like Gecko) Chrome/131.0.0.0 Safari/537.36 Edg/131.0.0.0" version="24.8.4">
  <diagram id="C5RBs43oDa-KdzZeNtuy" name="Page-1">
    <mxGraphModel dx="1379" dy="829" grid="0" gridSize="10" guides="1" tooltips="1" connect="1" arrows="1" fold="1" page="0" pageScale="1" pageWidth="827" pageHeight="1169" math="0" shadow="0">
      <root>
        <mxCell id="WIyWlLk6GJQsqaUBKTNV-0" />
        <mxCell id="WIyWlLk6GJQsqaUBKTNV-1" parent="WIyWlLk6GJQsqaUBKTNV-0" />
        <mxCell id="ZLLES68r65sy3YzfQ6G7-3" style="edgeStyle=orthogonalEdgeStyle;rounded=0;orthogonalLoop=1;jettySize=auto;html=1;exitX=0.5;exitY=1;exitDx=0;exitDy=0;entryX=0.5;entryY=0;entryDx=0;entryDy=0;" edge="1" parent="WIyWlLk6GJQsqaUBKTNV-1" source="ZLLES68r65sy3YzfQ6G7-0" target="ZLLES68r65sy3YzfQ6G7-2">
          <mxGeometry relative="1" as="geometry" />
        </mxCell>
        <mxCell id="ZLLES68r65sy3YzfQ6G7-0" value="START Level" style="ellipse;whiteSpace=wrap;html=1;" vertex="1" parent="WIyWlLk6GJQsqaUBKTNV-1">
          <mxGeometry x="362" y="114" width="120" height="80" as="geometry" />
        </mxCell>
        <mxCell id="ZLLES68r65sy3YzfQ6G7-4" style="edgeStyle=orthogonalEdgeStyle;rounded=0;orthogonalLoop=1;jettySize=auto;html=1;exitX=1;exitY=0.5;exitDx=0;exitDy=0;entryX=0.5;entryY=0;entryDx=0;entryDy=0;" edge="1" parent="WIyWlLk6GJQsqaUBKTNV-1" source="ZLLES68r65sy3YzfQ6G7-2" target="ZLLES68r65sy3YzfQ6G7-10">
          <mxGeometry relative="1" as="geometry">
            <mxPoint x="581" y="335" as="targetPoint" />
          </mxGeometry>
        </mxCell>
        <mxCell id="ZLLES68r65sy3YzfQ6G7-9" value="True" style="edgeLabel;html=1;align=center;verticalAlign=middle;resizable=0;points=[];" vertex="1" connectable="0" parent="ZLLES68r65sy3YzfQ6G7-4">
          <mxGeometry x="0.0864" relative="1" as="geometry">
            <mxPoint as="offset" />
          </mxGeometry>
        </mxCell>
        <mxCell id="ZLLES68r65sy3YzfQ6G7-6" style="edgeStyle=orthogonalEdgeStyle;rounded=0;orthogonalLoop=1;jettySize=auto;html=1;exitX=0;exitY=0.5;exitDx=0;exitDy=0;entryX=0.5;entryY=0;entryDx=0;entryDy=0;" edge="1" parent="WIyWlLk6GJQsqaUBKTNV-1" source="ZLLES68r65sy3YzfQ6G7-2" target="ZLLES68r65sy3YzfQ6G7-11">
          <mxGeometry relative="1" as="geometry">
            <mxPoint x="271" y="335" as="targetPoint" />
            <Array as="points">
              <mxPoint x="342" y="335" />
              <mxPoint x="342" y="474" />
              <mxPoint x="422" y="474" />
            </Array>
          </mxGeometry>
        </mxCell>
        <mxCell id="ZLLES68r65sy3YzfQ6G7-14" value="False" style="edgeLabel;html=1;align=center;verticalAlign=middle;resizable=0;points=[];" vertex="1" connectable="0" parent="ZLLES68r65sy3YzfQ6G7-6">
          <mxGeometry x="-0.4316" y="-2" relative="1" as="geometry">
            <mxPoint as="offset" />
          </mxGeometry>
        </mxCell>
        <mxCell id="ZLLES68r65sy3YzfQ6G7-2" value="player_coins = total_coins?" style="rhombus;whiteSpace=wrap;html=1;" vertex="1" parent="WIyWlLk6GJQsqaUBKTNV-1">
          <mxGeometry x="362" y="295" width="121" height="80" as="geometry" />
        </mxCell>
        <mxCell id="ZLLES68r65sy3YzfQ6G7-13" style="edgeStyle=orthogonalEdgeStyle;rounded=0;orthogonalLoop=1;jettySize=auto;html=1;exitX=0.5;exitY=1;exitDx=0;exitDy=0;entryX=0.5;entryY=0;entryDx=0;entryDy=0;" edge="1" parent="WIyWlLk6GJQsqaUBKTNV-1" source="ZLLES68r65sy3YzfQ6G7-10" target="ZLLES68r65sy3YzfQ6G7-11">
          <mxGeometry relative="1" as="geometry">
            <Array as="points">
              <mxPoint x="580" y="474" />
              <mxPoint x="422" y="474" />
            </Array>
          </mxGeometry>
        </mxCell>
        <mxCell id="ZLLES68r65sy3YzfQ6G7-10" value="Progress to next level" style="rounded=0;whiteSpace=wrap;html=1;" vertex="1" parent="WIyWlLk6GJQsqaUBKTNV-1">
          <mxGeometry x="520" y="397" width="120" height="60" as="geometry" />
        </mxCell>
        <mxCell id="ZLLES68r65sy3YzfQ6G7-11" value="END Level" style="ellipse;whiteSpace=wrap;html=1;" vertex="1" parent="WIyWlLk6GJQsqaUBKTNV-1">
          <mxGeometry x="362" y="520" width="120" height="80" as="geometry" />
        </mxCell>
      </root>
    </mxGraphModel>
  </diagram>
</mxfile>
